<svg xmlns="http://www.w3.org/2000/svg" width="222.607" height="186.171" viewBox="0 0 222.607 186.171"><defs><style>.a{fill:#194895;}</style></defs><g transform="translate(0 -36.173)"><path class="a" d="M57.974,249.79H171.438a5.036,5.036,0,0,0,0-10.073H57.974a5.036,5.036,0,0,0,0,10.073Z" transform="translate(-26.276 -101.032)"/><path class="a" d="M171.128,289.357h-70.41a5.036,5.036,0,1,0,0,10.073h70.411a5.036,5.036,0,1,0,0-10.073Z" transform="translate(-47.493 -125.671)"/><path class="a" d="M217.571,36.173a5.037,5.037,0,0,0-5.036,5.036v21.36H155.073V62.5A5.036,5.036,0,1,0,145,62.5v.066H31.861V62.5a5.036,5.036,0,1,0-10.073,0v.066H5.036a5.036,5.036,0,0,0,0,10.073H21.788V90.1H5.036A5.037,5.037,0,0,0,0,95.136V217.308a5.037,5.037,0,0,0,5.036,5.036H190.53a5.037,5.037,0,0,0,5.036-5.036V95.136A5.037,5.037,0,0,0,190.53,90.1H155.073V72.642h57.462V94a5.036,5.036,0,1,0,10.073,0V41.209A5.037,5.037,0,0,0,217.571,36.173Zm-32.077,176.1h-8.633v-112.1h8.633Zm-18.706,0H10.073v-112.1H166.788ZM145,90.1H31.861V72.642H145V90.1Z"/></g></svg>