<svg xmlns="http://www.w3.org/2000/svg" width="118.263" height="118.263" viewBox="0 0 118.263 118.263"><defs><style>.a{fill:none;}.b{fill:#6b7786;}</style></defs><path class="a" d="M0,0H118.263V118.263H0Z"/><path class="b" d="M22.711,46.349h9.855V56.2H22.711ZM91.7,21.711V90.7a9.884,9.884,0,0,1-9.855,9.855H12.855A9.853,9.853,0,0,1,3,90.7l.049-68.987a9.811,9.811,0,0,1,9.806-9.855h4.928V2h9.855v9.855H67.059V2h9.855v9.855h4.928A9.884,9.884,0,0,1,91.7,21.711ZM12.855,31.566H81.842V21.711H12.855ZM81.842,90.7V41.421H12.855V90.7ZM62.132,56.2h9.855V46.349H62.132Zm-19.711,0h9.855V46.349H42.421Z" transform="translate(11.783 7.855)"/></svg>