<svg xmlns="http://www.w3.org/2000/svg" xmlns:xlink="http://www.w3.org/1999/xlink" width="269.717" height="40.858" viewBox="0 0 269.717 40.858"><defs><style>.a,.i{fill:none;}.b{clip-path:url(#a);}.c{clip-path:url(#b);}.d{fill:#6e6f6e;}.e,.j{fill:#006aa9;}.f{fill:#9fa0a1;}.g{fill:#b7b8b9;}.h{fill:#a9abb1;}.i{stroke:#9fa0a1;stroke-miterlimit:22.926;stroke-width:0.216px;}.j{fill-rule:evenodd;}</style><clipPath id="a"><rect class="a" width="269.717" height="40.858" transform="translate(0)"/></clipPath><clipPath id="b"><rect class="a" width="276.637" height="195.602"/></clipPath></defs><g transform="translate(1193.937 -1708.536)"><g class="b" transform="translate(-1193.937 1708.536)"><g transform="translate(-1.798 -94.707)"><g class="c"><path class="d" d="M-1163.839,1734.5h11.557a3.3,3.3,0,0,0,.453,2.849,3.661,3.661,0,0,0,2.808.948,5.619,5.619,0,0,0,2.971-.663,2.454,2.454,0,0,0,1.32-1.855c.246-1.319-1.074-2.312-3.923-2.969-.246-.041-.411-.086-.577-.123-5.366-1.2-8.79-2.479-10.237-3.883-1.443-1.362-1.939-3.385-1.485-6.027a10.3,10.3,0,0,1,5.038-7.346c2.8-1.651,6.6-2.517,11.393-2.517,4.456,0,7.761.825,9.946,2.394,2.146,1.567,3.136,3.92,2.972,7.015h-10.733a2.631,2.631,0,0,0-.785-2.146,3.588,3.588,0,0,0-2.475-.827,4.783,4.783,0,0,0-2.477.58,2.165,2.165,0,0,0-1.073,1.526c-.206,1.194.99,2.106,3.59,2.683.7.123,1.2.249,1.569.331,5.2,1.238,8.462,2.559,9.863,3.962q2.045,2.106,1.363,6.191a10.7,10.7,0,0,1-5.363,7.721c-2.972,1.772-7.1,2.641-12.3,2.641-4.872,0-8.38-.869-10.61-2.641-2.268-1.734-3.177-4.337-2.8-7.844" transform="translate(1175.581 -1616.766)"/><path class="d" d="M-1044.656,1725.582h10.566a5.7,5.7,0,0,0-.825-4.17,4.423,4.423,0,0,0-3.63-1.4,5.588,5.588,0,0,0-3.922,1.486,7.392,7.392,0,0,0-2.188,4.087m8.3,9.412h11.432a15.007,15.007,0,0,1-6.771,7.427,23.752,23.752,0,0,1-11.517,2.562c-5.157,0-9-1.445-11.516-4.293s-3.34-6.687-2.474-11.517a18.861,18.861,0,0,1,6.729-11.887,20.558,20.558,0,0,1,13.329-4.375c5.285,0,9.206,1.609,11.644,4.746q3.71,4.765,2.226,13.125l-.124.742h-22.331a5.8,5.8,0,0,0,.743,4.46,4.379,4.379,0,0,0,3.716,1.568,6.9,6.9,0,0,0,3.013-.659A4.254,4.254,0,0,0-1036.357,1734.994Z" transform="translate(1104.154 -1616.766)"/><path class="d" d="M-930.551,1725.582h10.566a5.51,5.51,0,0,0-.784-4.17,4.423,4.423,0,0,0-3.63-1.4,5.62,5.62,0,0,0-3.963,1.486,7.694,7.694,0,0,0-2.188,4.087m8.34,9.412h11.391a14.916,14.916,0,0,1-6.73,7.427,24.016,24.016,0,0,1-11.555,2.562c-5.119,0-8.959-1.445-11.476-4.293s-3.346-6.687-2.52-11.517a19.056,19.056,0,0,1,6.732-11.887,20.636,20.636,0,0,1,13.329-4.375c5.326,0,9.205,1.609,11.681,4.746,2.435,3.177,3.178,7.554,2.192,13.125l-.126.742h-22.292a5.8,5.8,0,0,0,.744,4.46,4.276,4.276,0,0,0,3.715,1.568,6.885,6.885,0,0,0,3.014-.659A4.476,4.476,0,0,0-922.211,1734.994Z" transform="translate(1027.529 -1616.766)"/><path class="e" d="M-819.749,1729.587h3.058a9.115,9.115,0,0,0,4.083-.664,3.282,3.282,0,0,0,1.444-2.349c.168-1.156,0-1.94-.579-2.394-.534-.414-1.856-.663-3.88-.663h-3.052l-1.075,6.07M-832.3,1746.1l5.24-29.928h12.343a31.478,31.478,0,0,1,6.355.5,9.621,9.621,0,0,1,3.717,1.527,6.923,6.923,0,0,1,2.434,3.469,10.135,10.135,0,0,1,.168,4.912,11.886,11.886,0,0,1-4.294,7.676,14.439,14.439,0,0,1-9.037,2.684h-5.7l-1.609,9.164Z" transform="translate(952.926 -1618.954)"/><path class="e" d="M-726,1729.471c-.5,2.846-.415,4.909.328,6.231.7,1.364,2.062,2.021,4.086,2.021a6.067,6.067,0,0,0,4.746-1.98,13.122,13.122,0,0,0,2.477-6.273c.537-2.891.414-4.953-.285-6.275s-2.024-2.022-4.05-2.022a6.121,6.121,0,0,0-4.786,2.022,12.9,12.9,0,0,0-2.516,6.275m-9.743,0a18.842,18.842,0,0,1,6.229-11.558,17.994,17.994,0,0,1,12.14-4.253c4.789,0,8.337,1.445,10.606,4.253,2.312,2.806,3.016,6.645,2.149,11.558a19.17,19.17,0,0,1-6.193,11.516,18.061,18.061,0,0,1-12.136,4.251c-4.788,0-8.339-1.446-10.648-4.251C-735.871,1738.178-736.572,1734.3-735.747,1729.471Z" transform="translate(888.326 -1617.27)"/><path class="e" d="M-634.439,1746.1l5.281-29.928h9.825l-5.285,29.928h-9.821" transform="translate(820.083 -1618.954)"/><path class="e" d="M-586.841,1746.1l5.283-29.928h9.121l5.949,13.912a10.378,10.378,0,0,1,.534,1.692,25.211,25.211,0,0,1,.455,2.563,14.359,14.359,0,0,1,.124-1.737c.082-.618.2-1.4.332-2.311l2.516-14.119h9.125l-5.288,29.928h-9.12l-5.945-13.828a6.678,6.678,0,0,1-.535-1.692c-.208-.743-.333-1.612-.5-2.56,0,.5-.045,1.074-.082,1.651a19.913,19.913,0,0,1-.374,2.394l-2.476,14.036h-9.122" transform="translate(788.125 -1618.954)"/><path class="e" d="M-474.429,1746.1l3.917-22.083h-8.668l1.4-7.845h26.914l-1.362,7.845H-460.9l-3.88,22.083h-9.653" transform="translate(715.84 -1618.954)"/><path class="f" d="M-913.945,1569.838l7.76,18.82a40.482,40.482,0,0,1,2.436-3.468,25.917,25.917,0,0,1,3.178-3.633,43.254,43.254,0,0,1,4.912-4.208l-18.285-7.511" transform="translate(1007.745 -1520.706)"/><path class="f" d="M-943,1672.461l-17.048,7.554h16.387a41.654,41.654,0,0,1,.66-7.554" transform="translate(1038.696 -1589.608)"/><path class="g" d="M-951.005,1623.216l6.109,6.978,9.785.909-6.109-6.976-9.784-.91" transform="translate(1032.628 -1556.544)"/><path class="g" d="M-856.539,1526.988l.616,10.982,1.695,1.608a7.675,7.675,0,0,1,3.138-2.927,29.716,29.716,0,0,0,2.557-2.067v-.041l-8.007-7.555" transform="translate(969.203 -1491.936)"/><path class="g" d="M-935.8,1595.83l3.959,5.821,3.137-4.913-7.1-.908" transform="translate(1022.419 -1538.157)"/><path class="g" d="M-954.619,1654.62l-6.935,1.815,5.86,3.922,1.075-5.737" transform="translate(1039.711 -1577.629)"/><path class="g" d="M-889.827,1546.212l1.4,6.936,4.788-3.3-6.192-3.633" transform="translate(991.552 -1504.843)"/><path class="f" d="M-688.516,1569.838l-18.162,7.511a42.257,42.257,0,0,1,10.483,11.183l7.679-18.694" transform="translate(868.584 -1520.706)"/><path class="f" d="M-656.558,1673.724a40.715,40.715,0,0,1,.621,7.139h16.264l-16.885-7.139" transform="translate(834.933 -1590.456)"/><path class="g" d="M-646.7,1623.216l-9.784.91-6.11,6.976,9.785-.909,6.109-6.978" transform="translate(838.984 -1556.544)"/><path class="g" d="M-725.049,1526.988l-8.006,7.555a32.489,32.489,0,0,0,2.681,2.108,8.034,8.034,0,0,1,3.1,2.887l1.607-1.568.619-10.982" transform="translate(886.294 -1491.936)"/><path class="g" d="M-643.928,1595.83l-7.1.908,3.136,4.913,3.966-5.821" transform="translate(831.222 -1538.157)"/><path class="g" d="M-624.779,1654.62l1.076,5.737,5.863-3.922-6.939-1.815" transform="translate(813.597 -1577.629)"/><path class="g" d="M-688.05,1546.212l-6.19,3.633,4.79,3.3,1.4-6.936" transform="translate(860.234 -1504.843)"/><path class="f" d="M-916.089,1506.9c-.247.04-.534.08-.822.12l.161,1.447c.041-.043.041-.043.086-.043.2-.492.411-1.033.575-1.524m13.665,0a1.21,1.21,0,0,0,.164.41l.041-.37A.376.376,0,0,1-902.424,1506.9Zm1.157.164-.167,1.443c.33.043.619.081.949.125l.205-1.442C-900.61,1507.148-900.942,1507.107-901.268,1507.067Zm-16.637.082c-.331.045-.619.082-.952.125l.209,1.442c.333-.037.62-.125.95-.162Zm18.576.205-.205,1.4a7.344,7.344,0,0,0,.948.165l.251-1.4A8.648,8.648,0,0,0-899.328,1507.354Zm-20.517.041a7.7,7.7,0,0,1-.946.166l.244,1.445a7.468,7.468,0,0,0,.949-.165Zm22.459.292-.253,1.443c.291.04.62.125.911.166l.329-1.4A8.65,8.65,0,0,0-897.387,1507.686Zm-24.4.082c-.287.041-.62.123-.952.205l.287,1.4a5.729,5.729,0,0,0,.953-.208Zm26.335.331-.332,1.4a7.457,7.457,0,0,0,.949.208l.333-1.4A7.5,7.5,0,0,0-895.449,1508.1Zm-28.232.081a6.035,6.035,0,0,0-.953.209l.333,1.4a7.481,7.481,0,0,0,.949-.206Zm30.133.373-.373,1.4c.329.081.617.166.949.248l.373-1.4C-892.93,1508.715-893.219,1508.635-893.548,1508.552Zm-32.034.082c-.328.08-.661.165-.948.247l.373,1.4c.329-.082.616-.165.949-.25Zm33.929.454-.412,1.363a8.262,8.262,0,0,0,.911.289l.449-1.363A7.838,7.838,0,0,0-891.653,1509.088Zm-35.827.081c-.328.085-.618.17-.951.29l.456,1.361a9.2,9.2,0,0,0,.907-.287Zm37.727.5-.456,1.363c.292.123.578.206.91.329l.452-1.4C-889.133,1509.872-889.465,1509.749-889.753,1509.667Zm-39.627.083c-.288.084-.617.206-.907.286l.454,1.405c.33-.124.616-.206.905-.33Zm41.486.536-.5,1.4a8.358,8.358,0,0,1,.866.329l.536-1.358C-887.278,1510.532-887.606,1510.409-887.894,1510.285Zm-43.3.084c-.328.125-.619.248-.948.371l.538,1.36c.287-.121.575-.247.907-.37Zm45.117.66-.538,1.32c.292.124.575.248.909.369l.537-1.317C-885.458,1511.276-885.75,1511.152-886.078,1511.029Zm-46.973.042c-.29.122-.62.245-.908.369l.576,1.363c.287-.126.578-.248.866-.372Zm48.787.7-.574,1.321a7.53,7.53,0,0,0,.863.41l.624-1.317C-883.644,1512.061-883.976,1511.9-884.264,1511.772Zm-50.6.082c-.289.125-.576.247-.909.373l.62,1.32c.289-.125.576-.248.867-.371Zm52.421.744-.658,1.321c.288.123.576.289.866.413l.659-1.28A7.887,7.887,0,0,0-882.448,1512.6Zm-54.2.04c-.288.166-.578.288-.867.455l.62,1.28a8.3,8.3,0,0,0,.863-.412Zm55.931.826-.661,1.321a8.911,8.911,0,0,1,.867.455l.661-1.28C-880.133,1513.792-880.424,1513.628-880.712,1513.464Zm-57.7.039a8.562,8.562,0,0,1-.87.458l.7,1.321a9.021,9.021,0,0,1,.867-.455Zm59.435.911-.7,1.278c.289.166.535.29.826.453l.744-1.234C-878.4,1514.743-878.694,1514.576-878.982,1514.414Zm-61.128.041-.867.5.743,1.236a5.459,5.459,0,0,1,.823-.451Zm62.819.947-.741,1.241c.288.162.539.329.826.493l.788-1.236C-876.708,1515.735-877,1515.571-877.29,1515.4Zm-64.511.044c-.291.163-.578.329-.87.5l.785,1.236c.291-.166.538-.331.825-.5Zm66.206.99-.784,1.238a8.787,8.787,0,0,1,.784.536l.825-1.238A6.021,6.021,0,0,1-875.6,1516.436Zm-67.9.042c-.246.165-.538.327-.825.533l.825,1.2c.25-.166.538-.371.784-.536Zm69.51,1.074-.825,1.2c.288.162.538.37.784.536l.867-1.2C-873.449,1517.923-873.7,1517.716-873.986,1517.552Zm-71.12,0c-.288.2-.535.371-.822.577l.863,1.155c.246-.166.535-.374.788-.536Zm72.729,1.114-.866,1.2c.246.165.494.371.744.577l.907-1.155C-871.839,1519.078-872.127,1518.875-872.377,1518.666Zm-74.338.041c-.248.168-.538.371-.784.577l.906,1.155c.25-.206.5-.37.744-.577Zm75.908,1.154-.909,1.155c.247.207.5.415.743.619l.908-1.154Zm-77.477.041c-.249.209-.5.412-.743.62l.911,1.113c.247-.2.493-.412.74-.619Zm78.962,1.24-.908,1.113c.246.208.453.415.7.622l.989-1.117C-868.785,1521.551-869.034,1521.349-869.322,1521.141Zm-80.449,0c-.248.207-.5.41-.74.618l.945,1.117q.375-.311.743-.622Zm81.935,1.279-.949,1.074c.206.206.456.411.7.661l.989-1.074C-867.339,1522.876-867.585,1522.628-867.836,1522.42Zm-83.42,0c-.247.208-.494.456-.743.662l1.034,1.074c.2-.206.455-.455.7-.661Zm84.866,1.32-.993,1.076a8.832,8.832,0,0,1,.665.661l1.03-1.035C-865.934,1524.193-866.143,1523.991-866.39,1523.741Zm-86.311.041c-.251.209-.453.458-.7.661l1.034,1.035c.247-.209.453-.455.7-.661Zm87.712,1.363-1.03.992c.208.246.413.453.66.7l1.031-.99A9.468,9.468,0,0,0-864.989,1525.145Zm-89.072,0c-.25.247-.456.5-.7.743l1.073.99a5.444,5.444,0,0,1,.66-.7Zm90.435,1.4-1.074.993c.209.249.417.495.622.7l1.076-.952Zm-91.8.041c-.208.248-.454.494-.661.744l1.114.949c.208-.246.41-.454.623-.7Zm93.079,1.446-1.117.949c.21.248.419.493.62.7l1.121-.906C-861.931,1528.531-862.137,1528.281-862.346,1528.035Zm-94.36.04c-.25.248-.451.5-.658.744l1.155.948a9.163,9.163,0,0,1,.576-.743Zm95.6,1.443-1.113.911a5.674,5.674,0,0,1,.58.784l1.156-.908C-860.695,1530.056-860.9,1529.767-861.109,1529.518Zm-96.873.085a4.967,4.967,0,0,0-.58.784l1.154.868c.168-.25.373-.5.578-.744Zm98.112,1.486-1.154.869c.166.245.37.494.538.74l1.2-.827C-859.5,1531.584-859.7,1531.338-859.87,1531.09Zm-99.312.082c-.164.247-.369.5-.579.786l1.2.821a8.244,8.244,0,0,1,.58-.74Zm100.47,1.485-1.2.826c.165.288.373.534.538.783l1.2-.825C-858.343,1533.193-858.547,1532.906-858.712,1532.657Zm-101.582.082c-.21.29-.371.577-.579.827l1.236.822a6.051,6.051,0,0,1,.534-.781Zm102.695,1.527-1.239.828c.168.246.373.495.537.784l1.24-.784A9.158,9.158,0,0,1-857.6,1534.267Zm-103.809.122a5.9,5.9,0,0,1-.536.829l1.236.782c.164-.29.371-.536.538-.826Zm104.84,1.532-1.24.782c.168.247.332.537.5.784l1.243-.743C-856.235,1536.452-856.4,1536.209-856.568,1535.92Zm-105.874.162c-.168.29-.329.539-.5.826l1.241.743c.164-.289.332-.538.5-.824Zm106.867,1.53-1.241.7c.165.287.291.577.456.825l1.277-.7C-855.247,1538.147-855.414,1537.9-855.575,1537.612Zm-107.858.163c-.164.289-.29.577-.454.867l1.276.7c.168-.289.292-.579.455-.866Zm108.806,1.527-1.281.7a4.8,4.8,0,0,1,.456.825l1.281-.661A9.77,9.77,0,0,0-854.626,1539.3Zm-109.717.206c-.164.291-.287.58-.452.87l1.322.658c.125-.289.289-.578.415-.868Zm110.624,1.528-1.321.66c.165.289.29.578.454.868l1.278-.62A8.2,8.2,0,0,0-853.719,1541.036Zm-111.489.249a8.821,8.821,0,0,0-.412.863l1.319.622a8,8,0,0,1,.415-.866Zm112.355,1.524-1.358.621a8.238,8.238,0,0,1,.41.869l1.323-.58C-852.6,1543.431-852.725,1543.141-852.853,1542.809Zm-113.177.249c-.126.33-.25.62-.374.908l1.32.578a5.892,5.892,0,0,1,.415-.908Zm113.965,1.571-1.362.575c.12.29.242.581.372.868l1.36-.539a9.213,9.213,0,0,0-.412-.9Zm-114.709.245c-.127.33-.25.62-.373.911l1.359.534c.127-.287.249-.618.373-.908Zm115.407,1.569-1.359.536a6.915,6.915,0,0,1,.325.868l1.408-.5C-851.119,1547.063-851.239,1546.733-851.367,1546.444Zm-116.112.288a6.914,6.914,0,0,1-.329.907l1.4.5c.082-.331.206-.618.289-.908Zm116.816,1.57-1.4.454c.121.33.206.618.326.907l1.363-.454a7.079,7.079,0,0,0-.329-.906Zm-117.433.288a7.056,7.056,0,0,0-.29.907l1.363.456c.123-.333.206-.62.287-.911Zm118.011,1.565-1.362.416c.081.329.166.618.246.946l1.4-.41A8.8,8.8,0,0,0-850.085,1550.156Zm-118.589.291c-.085.333-.168.619-.246.95l1.4.373c.078-.29.164-.621.246-.91Zm119.165,1.613-1.4.37c.082.29.164.618.248.907l1.4-.329C-849.342,1552.678-849.428,1552.347-849.509,1552.059Zm-119.7.288c-.082.331-.123.62-.2.948l1.4.329c.083-.288.165-.616.247-.905Zm120.2,1.606-1.4.332a9.121,9.121,0,0,0,.209.949l1.4-.329A6.17,6.17,0,0,0-849.013,1553.954Zm-120.652.292a7.919,7.919,0,0,1-.208.988l1.445.29a8.084,8.084,0,0,1,.205-.951Zm121.066,1.607-1.4.29c.082.33.124.622.206.95l1.4-.29A8.017,8.017,0,0,0-848.6,1555.853Zm-121.438.333c-.083.329-.124.618-.2.95l1.439.247a7.018,7.018,0,0,0,.167-.909Zm121.85,1.608-1.446.248c.044.29.123.62.167.949l1.445-.245A9.036,9.036,0,0,1-848.187,1557.794Zm-122.224.33c-.038.33-.082.622-.119.948l1.442.21c.04-.292.085-.621.126-.951Zm122.514,1.608-1.445.208a6.508,6.508,0,0,1,.164.951l1.446-.207A6.615,6.615,0,0,0-847.9,1559.732Zm-122.76.333c-.042.332-.082.662-.125.952l1.446.161c.041-.287.082-.617.123-.949Zm123.044,1.613-1.441.161c.041.291.041.62.082.951l1.446-.165C-847.572,1562.295-847.572,1562.005-847.613,1561.678Zm-123.294.327c-.038.332-.038.659-.079.988l1.443.125a8.213,8.213,0,0,0,.085-.949Zm123.5,1.61-1.487.124a6.842,6.842,0,0,1,.082.95l1.449-.082C-847.359,1564.276-847.4,1563.945-847.4,1563.615Zm-123.666.329c0,.331-.041.662-.041.993l1.445.083c0-.332.042-.621.042-.952Zm123.792,1.611-1.449.084a8.007,8.007,0,0,0,.041.99l1.445-.083C-847.239,1566.216-847.277,1565.886-847.277,1565.555Zm-123.874.372a8.033,8.033,0,0,0-.041.988l1.445.044a8.213,8.213,0,0,1,.04-.995Zm123.953,1.608-1.445.041v.951h1.445Zm-124.038.332v.99h1.449v-.95Z" transform="translate(1046.211 -1478.451)"/><rect class="h" width="31.333" height="0.497" transform="translate(140.523 90.446)"/><rect class="i" width="31.333" height="0.497" transform="translate(140.523 90.446)"/><path class="h" d="M-748.2,1617.694l-22.168,22.121.333.374,22.165-22.166Z" transform="translate(911.346 -1552.837)"/><path class="i" d="M-748.2,1617.694l-22.168,22.121.333.374,22.165-22.166Z" transform="translate(911.346 -1552.837)"/><rect class="h" width="32.319" height="0.497" transform="translate(99.619 90.446)"/><rect class="i" width="32.319" height="0.497" transform="translate(99.619 90.446)"/><path class="g" d="M-809.576,1493.581a4.341,4.341,0,0,0-.458.7c-.864,1.53-1.36,3.552-2.433,5.989l-.04.082-.082.044a6.58,6.58,0,0,0-3.016,2.556,5.574,5.574,0,0,0-.744,2.766,7.02,7.02,0,0,0,.374,2.226,5.992,5.992,0,0,1,2.807-.822,4.61,4.61,0,0,1,2.723.99,10.641,10.641,0,0,1,2.559,3.3l.04.041v.205a6.214,6.214,0,0,1,1.573-.33c-.041-.2-.124-.7-.251-1.443-.161-.951-.412-2.23-.7-3.632a48.518,48.518,0,0,0-2.024-7.8v-.041a12.6,12.6,0,0,1-.414-3.3A9.162,9.162,0,0,1-809.576,1493.581Z" transform="translate(942.219 -1469.506)"/><path class="i" d="M-809.576,1493.581a4.341,4.341,0,0,0-.458.7c-.864,1.53-1.36,3.552-2.433,5.989l-.04.082-.082.044a6.58,6.58,0,0,0-3.016,2.556,5.574,5.574,0,0,0-.744,2.766,7.02,7.02,0,0,0,.374,2.226,5.992,5.992,0,0,1,2.807-.822,4.61,4.61,0,0,1,2.723.99,10.641,10.641,0,0,1,2.559,3.3l.04.041v.205a6.214,6.214,0,0,1,1.573-.33c-.041-.2-.124-.7-.251-1.443-.161-.951-.412-2.23-.7-3.632a48.518,48.518,0,0,0-2.024-7.8v-.041a12.6,12.6,0,0,1-.414-3.3A9.162,9.162,0,0,1-809.576,1493.581Z" transform="translate(942.219 -1469.506)"/><path class="f" d="M-810.457,1490.693a8,8,0,0,0-1.028,1.4,32.031,32.031,0,0,0-1.613,3.922c-.164.491-.37,1.032-.575,1.524a2.322,2.322,0,0,0-.209.5,6.98,6.98,0,0,0-3.136,2.724,5.833,5.833,0,0,0-.823,3.015,8.16,8.16,0,0,0,.411,2.475,1.2,1.2,0,0,1,.452-.248,7.026,7.026,0,0,1-.374-2.226,5.573,5.573,0,0,1,.744-2.766,6.58,6.58,0,0,1,3.016-2.557l.083-.044.04-.082c1.073-2.437,1.568-4.459,2.433-5.989a4.337,4.337,0,0,1,.458-.7c.038-.329.083-.618.121-.949" transform="translate(943.221 -1467.567)"/><path class="g" d="M-775.274,1495.466a9.826,9.826,0,0,1,.038,1.074,14.271,14.271,0,0,1-.617,4.208v.043c-2.269,7.058-2.892,10.237-2.933,11.8a5.009,5.009,0,0,1,1.406.33c0-.039.038-.081.038-.165v-.081a11.375,11.375,0,0,1,2.6-3.3,4.519,4.519,0,0,1,2.724-.99,6.349,6.349,0,0,1,2.971.906,9.2,9.2,0,0,0,.166-1.653,5.736,5.736,0,0,0-.743-2.929,6.772,6.772,0,0,0-3.014-2.683l-.079-.041v-.083c-.828-1.9-1.284-3.591-1.86-4.955a12.3,12.3,0,0,0-.7-1.484" transform="translate(916.999 -1470.771)"/><path class="h" d="M-768.482,1492.074c.044.372.085.7.127,1.115a12.307,12.307,0,0,1,.7,1.484c.576,1.364,1.032,3.057,1.86,4.955v.083l.078.041a6.771,6.771,0,0,1,3.014,2.683,5.737,5.737,0,0,1,.743,2.929,9.2,9.2,0,0,1-.166,1.653,4.466,4.466,0,0,0,.456.246,8.185,8.185,0,0,0,.2-1.9,6.352,6.352,0,0,0-.779-3.177,7.155,7.155,0,0,0-3.139-2.847c-.291-.705-.537-1.322-.744-1.983a1.208,1.208,0,0,1-.164-.41,23.746,23.746,0,0,0-1.528-3.84A8.736,8.736,0,0,0-768.482,1492.074Z" transform="translate(910.08 -1468.494)"/><path class="i" d="M-768.482,1492.074c.044.372.085.7.127,1.115a12.307,12.307,0,0,1,.7,1.484c.576,1.364,1.032,3.057,1.86,4.955v.083l.078.041a6.771,6.771,0,0,1,3.014,2.683,5.737,5.737,0,0,1,.743,2.929,9.2,9.2,0,0,1-.166,1.653,4.466,4.466,0,0,0,.456.246,8.185,8.185,0,0,0,.2-1.9,6.352,6.352,0,0,0-.779-3.177,7.155,7.155,0,0,0-3.139-2.847c-.291-.705-.537-1.322-.744-1.983a1.208,1.208,0,0,1-.164-.41,23.746,23.746,0,0,0-1.528-3.84A8.736,8.736,0,0,0-768.482,1492.074Z" transform="translate(910.08 -1468.494)"/><path class="g" d="M-790.318,1449.869c-.038.2-.082.453-.12.7-.249,1.528-.538,3.716-.706,6.44l-.041.083-.041.082a12.559,12.559,0,0,0-3.383,8.585,11.754,11.754,0,0,0,.455,3.18,51.176,51.176,0,0,1,2.025,7.884c.452,2.312.822,4.336.9,4.955h1.322c.082-1.735.743-4.955,2.972-11.766a14.779,14.779,0,0,0,.576-4.084,14.539,14.539,0,0,0-3.179-8.958l-.041-.041-.079-.041v-.083l-.664-6.935" transform="translate(927.622 -1440.157)"/><path class="h" d="M-791.413,1444.467h0a61.842,61.842,0,0,0-1.157,8.792,12.949,12.949,0,0,0-3.219,6.4c-.038.331-.083.62-.121.949a9.164,9.164,0,0,0-.085,1.526,12.605,12.605,0,0,0,.414,3.3v.041a48.508,48.508,0,0,1,2.024,7.8c.287,1.4.538,2.681.7,3.632.127.743.21,1.239.251,1.443.164,0,.329-.041.493-.041s.373.041.579.041.37-.041.578-.041.414.041.617.041c.041-1.566.664-4.745,2.933-11.8v-.043a14.276,14.276,0,0,0,.617-4.208,9.828,9.828,0,0,0-.038-1.075c-.042-.412-.082-.743-.127-1.115a14.947,14.947,0,0,0-3.137-7.1l-.825-8.5Zm-3.672,20.843h0a11.756,11.756,0,0,1-.455-3.179,12.559,12.559,0,0,1,3.383-8.585l.041-.082.041-.083c.168-2.724.456-4.912.706-6.44.037-.246.082-.5.12-.7l.664,6.935v.082l.079.041.041.041a14.539,14.539,0,0,1,3.179,8.958,14.779,14.779,0,0,1-.576,4.084c-2.23,6.811-2.891,10.031-2.972,11.766h-1.322c-.082-.618-.451-2.643-.9-4.954A51.174,51.174,0,0,0-795.085,1465.31Z" transform="translate(928.553 -1436.53)"/><path class="i" d="M-791.413,1444.467h0a61.842,61.842,0,0,0-1.157,8.792,12.949,12.949,0,0,0-3.219,6.4c-.038.331-.083.62-.121.949a9.164,9.164,0,0,0-.085,1.526,12.605,12.605,0,0,0,.414,3.3v.041a48.508,48.508,0,0,1,2.024,7.8c.287,1.4.538,2.681.7,3.632.127.743.21,1.239.251,1.443.164,0,.329-.041.493-.041s.373.041.579.041.37-.041.578-.041.414.041.617.041c.041-1.566.664-4.745,2.933-11.8v-.043a14.276,14.276,0,0,0,.617-4.208,9.828,9.828,0,0,0-.038-1.075c-.042-.412-.082-.743-.127-1.115a14.947,14.947,0,0,0-3.137-7.1l-.825-8.5Zm-3.672,20.843h0a11.756,11.756,0,0,1-.455-3.179,12.559,12.559,0,0,1,3.383-8.585l.041-.082.041-.083c.168-2.724.456-4.912.706-6.44.037-.246.082-.5.12-.7l.664,6.935v.082l.079.041.041.041a14.539,14.539,0,0,1,3.179,8.958,14.779,14.779,0,0,1-.576,4.084c-2.23,6.811-2.891,10.031-2.972,11.766h-1.322c-.082-.618-.451-2.643-.9-4.954A51.174,51.174,0,0,0-795.085,1465.31Z" transform="translate(928.553 -1436.53)"/><rect class="h" width="0.496" height="32.609" transform="translate(136.771 53.134)"/><rect class="i" width="0.496" height="32.609" transform="translate(136.771 53.134)"/><path class="g" d="M-838.676,1536.291c-1.61,0-3.3,1.073-5.078,2.478-1.774,1.444-3.63,3.177-5.569,4.542a8.672,8.672,0,0,0-4.172,5.445,20.145,20.145,0,0,0-.784,5.121,42.091,42.091,0,0,1,9.823-4.954c.455-.537.869-1.032.952-1.115.041-.04.164-.248.37-.535a.862.862,0,0,0-.165-.208.793.793,0,0,0-.5-.33l-.246-.042.082-.29a12.264,12.264,0,0,1,2.435-5.365,3.7,3.7,0,0,1,2.808-1.4,5.252,5.252,0,0,1,2.929,1.2v.043l.578.618a2.034,2.034,0,0,0,.371-.29,9.161,9.161,0,0,1,1.034-.66v-.287a9.9,9.9,0,0,0-2.435-3.055,3.632,3.632,0,0,0-2.394-.908Z" transform="translate(967.685 -1498.182)"/><path class="i" d="M-838.676,1536.291c-1.61,0-3.3,1.073-5.078,2.478-1.774,1.444-3.63,3.177-5.569,4.542a8.672,8.672,0,0,0-4.172,5.445,20.145,20.145,0,0,0-.784,5.121,42.091,42.091,0,0,1,9.823-4.954c.455-.537.869-1.032.952-1.115.041-.04.164-.248.37-.535a.862.862,0,0,0-.165-.208.793.793,0,0,0-.5-.33l-.246-.042.082-.29a12.264,12.264,0,0,1,2.435-5.365,3.7,3.7,0,0,1,2.808-1.4,5.252,5.252,0,0,1,2.929,1.2v.043l.578.618a2.034,2.034,0,0,0,.371-.29,9.161,9.161,0,0,1,1.034-.66v-.287a9.9,9.9,0,0,0-2.435-3.055,3.632,3.632,0,0,0-2.394-.908Z" transform="translate(967.685 -1498.182)"/><path class="f" d="M-839.648,1534.789a5.99,5.99,0,0,0-2.807.822,1.2,1.2,0,0,0-.453.248,21.51,21.51,0,0,0-2.189,1.53c-.951.744-1.938,1.607-2.931,2.432a29.706,29.706,0,0,1-2.557,2.067,7.672,7.672,0,0,0-3.138,2.927,11,11,0,0,0-1.239,2.768,19.008,19.008,0,0,0-.826,5.488v.125a3.709,3.709,0,0,0,.5-.33,20.15,20.15,0,0,1,.784-5.121,8.672,8.672,0,0,1,4.172-5.445c1.939-1.365,3.795-3.1,5.569-4.542,1.777-1.4,3.468-2.478,5.078-2.478h.041a3.632,3.632,0,0,1,2.394.908,9.9,9.9,0,0,1,2.435,3.055v.287c.164-.084.328-.122.492-.206v-.205l-.04-.041a10.642,10.642,0,0,0-2.559-3.3,4.608,4.608,0,0,0-2.723-.99m-.083,3.836a3.7,3.7,0,0,0-2.808,1.4,12.264,12.264,0,0,0-2.434,5.365l-.082.29.246.042a.792.792,0,0,1,.5.33.865.865,0,0,1,.165.208c.082-.126.206-.25.329-.414-.041-.043-.082-.084-.165-.166a1.119,1.119,0,0,0-.493-.372,11.963,11.963,0,0,1,2.311-4.954,3.247,3.247,0,0,1,2.435-1.237,3.931,3.931,0,0,1,1.816.538c.249.163.454.288.578.37a.568.568,0,0,1,.166.125v.039h.041l.538.62c.123-.124.246-.205.369-.33l-.578-.618v-.043A5.254,5.254,0,0,0-839.73,1538.625Z" transform="translate(968.698 -1497.173)"/><path class="g" d="M-768.128,1536.291h0a3.735,3.735,0,0,0-2.436.908,9.824,9.824,0,0,0-2.394,3.055.861.861,0,0,0-.038.287,9.743,9.743,0,0,1,1.069.66c.127.125.25.206.332.29l.579-.618.041-.043a4.923,4.923,0,0,1,2.928-1.2,3.763,3.763,0,0,1,2.811,1.4,12.862,12.862,0,0,1,2.435,5.365l.08.29-.289.042a.749.749,0,0,0-.414.248,1.6,1.6,0,0,0-.246.29c.205.287.37.453.414.535.041.042.455.578.907,1.115a42.209,42.209,0,0,1,9.823,4.954,18.229,18.229,0,0,0-.743-5.121,8.966,8.966,0,0,0-4.169-5.445h-.041c-1.9-1.365-3.757-3.1-5.531-4.542-1.777-1.4-3.51-2.478-5.118-2.478" transform="translate(913.111 -1498.182)"/><path class="h" d="M-769.142,1534.789a4.518,4.518,0,0,0-2.724.99,11.372,11.372,0,0,0-2.6,3.3v.081c0,.084-.038.126-.038.165a2.14,2.14,0,0,0,.5.206.862.862,0,0,1,.038-.287,9.824,9.824,0,0,1,2.394-3.055,3.735,3.735,0,0,1,2.436-.908c1.609,0,3.342,1.073,5.119,2.478,1.774,1.444,3.635,3.177,5.531,4.542h.041a8.966,8.966,0,0,1,4.168,5.445,18.23,18.23,0,0,1,.743,5.121,3.933,3.933,0,0,0,.5.33v-.125a18.663,18.663,0,0,0-.785-5.488,10.746,10.746,0,0,0-1.278-2.808,8.033,8.033,0,0,0-3.1-2.887,32.429,32.429,0,0,1-2.681-2.108c-.949-.825-1.9-1.647-2.849-2.391a19.94,19.94,0,0,0-1.98-1.448,4.4,4.4,0,0,1-.456-.246A6.349,6.349,0,0,0-769.142,1534.789Zm.082,3.836a4.925,4.925,0,0,0-2.928,1.2l-.041.043-.579.618a1.507,1.507,0,0,1,.37.33l.578-.62a4.232,4.232,0,0,1,2.559-1.072h.041a3.308,3.308,0,0,1,2.434,1.237,12.047,12.047,0,0,1,2.271,4.954,1.955,1.955,0,0,0-.492.372.345.345,0,0,1-.169.166c.126.164.251.288.333.414a1.593,1.593,0,0,1,.246-.29.75.75,0,0,1,.414-.248l.288-.042-.08-.29a12.865,12.865,0,0,0-2.435-5.365A3.764,3.764,0,0,0-769.061,1538.625Z" transform="translate(914.125 -1497.173)"/><path class="i" d="M-769.142,1534.789a4.518,4.518,0,0,0-2.724.99,11.372,11.372,0,0,0-2.6,3.3v.081c0,.084-.038.126-.038.165a2.14,2.14,0,0,0,.5.206.862.862,0,0,1,.038-.287,9.824,9.824,0,0,1,2.394-3.055,3.735,3.735,0,0,1,2.436-.908c1.609,0,3.342,1.073,5.119,2.478,1.774,1.444,3.635,3.177,5.531,4.542h.041a8.966,8.966,0,0,1,4.168,5.445,18.23,18.23,0,0,1,.743,5.121,3.933,3.933,0,0,0,.5.33v-.125a18.663,18.663,0,0,0-.785-5.488,10.746,10.746,0,0,0-1.278-2.808,8.033,8.033,0,0,0-3.1-2.887,32.429,32.429,0,0,1-2.681-2.108c-.949-.825-1.9-1.647-2.849-2.391a19.94,19.94,0,0,0-1.98-1.448,4.4,4.4,0,0,1-.456-.246A6.349,6.349,0,0,0-769.142,1534.789Zm.082,3.836a4.925,4.925,0,0,0-2.928,1.2l-.041.043-.579.618a1.507,1.507,0,0,1,.37.33l.578-.62a4.232,4.232,0,0,1,2.559-1.072h.041a3.308,3.308,0,0,1,2.434,1.237,12.047,12.047,0,0,1,2.271,4.954,1.955,1.955,0,0,0-.492.372.345.345,0,0,1-.169.166c.126.164.251.288.333.414a1.593,1.593,0,0,1,.246-.29.75.75,0,0,1,.414-.248l.288-.042-.08-.29a12.865,12.865,0,0,0-2.435-5.365A3.764,3.764,0,0,0-769.061,1538.625Z" transform="translate(914.125 -1497.173)"/><path class="g" d="M-808.243,1548.971c-.165,0-.373.046-.578.046h-.041c-.165,0-.37-.046-.538-.046a5.435,5.435,0,0,0-3.3,1.159,23.156,23.156,0,0,0-2.727,2.64l-.082.083h-.123a5.776,5.776,0,0,0-3.795,1.693,9.556,9.556,0,0,0-1.815,2.023l-.044.041v.042s-.082.081-.247.247a1.173,1.173,0,0,1-.206.248,43.041,43.041,0,0,1,12.918-1.981,42.6,42.6,0,0,1,12.879,1.981l-.126-.123a2.642,2.642,0,0,0-.287-.372l.165-.164-.165.164h-.041v-.042l-.041-.041-.041-.125a4.772,4.772,0,0,1-.333-.409,15.043,15.043,0,0,0-1.193-1.323,6.191,6.191,0,0,0-4.047-1.859h-.124l-.04-.083a27.244,27.244,0,0,0-2.727-2.64A5.533,5.533,0,0,0-808.243,1548.971Z" transform="translate(945.838 -1506.695)"/><path class="i" d="M-808.243,1548.971c-.165,0-.373.046-.578.046h-.041c-.165,0-.37-.046-.538-.046a5.435,5.435,0,0,0-3.3,1.159,23.156,23.156,0,0,0-2.727,2.64l-.082.083h-.123a5.776,5.776,0,0,0-3.795,1.693,9.556,9.556,0,0,0-1.815,2.023l-.044.041v.042s-.082.081-.247.247a1.173,1.173,0,0,1-.206.248,43.041,43.041,0,0,1,12.918-1.981,42.6,42.6,0,0,1,12.879,1.981l-.126-.123a2.642,2.642,0,0,0-.287-.372l.165-.164-.165.164h-.041v-.042l-.041-.041-.041-.125a4.772,4.772,0,0,1-.333-.409,15.043,15.043,0,0,0-1.193-1.323,6.191,6.191,0,0,0-4.047-1.859h-.124l-.04-.083a27.244,27.244,0,0,0-2.727-2.64A5.533,5.533,0,0,0-808.243,1548.971Z" transform="translate(945.838 -1506.695)"/><path class="f" d="M-810.019,1547.468c-.208,0-.373.041-.578.041s-.411-.041-.579-.041-.329.041-.493.041a6.231,6.231,0,0,0-1.573.33c-.164.085-.329.123-.492.206a9.148,9.148,0,0,0-1.034.66,2.037,2.037,0,0,1-.371.29c-.123.125-.246.207-.369.33-.661.62-1.322,1.319-1.984,2.022a6.6,6.6,0,0,0-4.253,2.024,7.823,7.823,0,0,0-.989.99c-.123.164-.247.287-.329.414-.206.287-.329.495-.37.535-.083.083-.5.578-.952,1.115a7.4,7.4,0,0,0,.869-.289,1.181,1.181,0,0,0,.206-.248c.165-.166.247-.247.247-.247v-.042l.044-.041a9.554,9.554,0,0,1,1.815-2.023,5.776,5.776,0,0,1,3.795-1.693h.123l.082-.083a23.166,23.166,0,0,1,2.727-2.64,5.435,5.435,0,0,1,3.3-1.159c.168,0,.373.046.538.046h.041c.205,0,.414-.046.578-.046a5.532,5.532,0,0,1,3.3,1.159,27.264,27.264,0,0,1,2.727,2.64l.04.083h.124a6.191,6.191,0,0,1,4.047,1.859,15.062,15.062,0,0,1,1.193,1.322,4.754,4.754,0,0,0,.333.409l.041.125.041.041v.042h.041l.165-.164-.165.164a2.642,2.642,0,0,1,.287.372c.042.04.085.082.126.123a7.435,7.435,0,0,0,.867.289c-.452-.536-.867-1.073-.907-1.115-.044-.082-.208-.248-.414-.535-.082-.126-.206-.25-.333-.414a10.169,10.169,0,0,0-.948-.99,6.6,6.6,0,0,0-4.291-2.024c-.662-.7-1.28-1.4-1.983-2.022a1.506,1.506,0,0,0-.37-.33c-.082-.083-.205-.165-.332-.29a9.724,9.724,0,0,0-1.069-.66,2.147,2.147,0,0,1-.5-.206,5.017,5.017,0,0,0-1.406-.33c-.2,0-.412-.041-.617-.041" transform="translate(947.613 -1505.686)"/><path class="f" d="M-868.2,1567.822a43.036,43.036,0,0,0-12.918,1.981,7.421,7.421,0,0,1-.869.288,42.089,42.089,0,0,0-9.823,4.955,3.682,3.682,0,0,1-.5.33c-.288.2-.538.411-.825.62a43.224,43.224,0,0,0-4.912,4.208c-1.116,1.156-2.188,2.394-3.178,3.633a40.5,40.5,0,0,0-2.435,3.468,41.476,41.476,0,0,0-5.859,14.9,41.654,41.654,0,0,0-.66,7.554v.039h2.969a38.855,38.855,0,0,1,11.394-27.611A39.2,39.2,0,0,1-868.2,1570.75a39.033,39.033,0,0,1,27.572,11.437,38.876,38.876,0,0,1,11.435,27.611h2.973v-.039a40.707,40.707,0,0,0-.621-7.139,41.822,41.822,0,0,0-5.986-15.442A42.255,42.255,0,0,0-843.305,1576c-.288-.209-.534-.415-.825-.62a3.9,3.9,0,0,1-.5-.33,42.2,42.2,0,0,0-9.823-4.955,7.447,7.447,0,0,1-.866-.288,42.594,42.594,0,0,0-12.879-1.981" transform="translate(1005.212 -1519.352)"/><path class="h" d="M-867.348,1616.3l-.373.332,22.164,22.164.333-.368Z" transform="translate(976.71 -1551.903)"/><path class="i" d="M-867.348,1616.3l-.373.332,22.164,22.164.333-.368Z" transform="translate(976.71 -1551.903)"/><path class="j" d="M-1101.347,1844.275l.354.115a23.714,23.714,0,0,1-3.767,8.187,20.59,20.59,0,0,1-5.888,5.584,12.1,12.1,0,0,1-6.231,1.984,3.768,3.768,0,0,1-2.738-1,3.625,3.625,0,0,1-1.02-2.7,11.062,11.062,0,0,1,1.818-5.657,22.35,22.35,0,0,1,5.05-5.658,26.684,26.684,0,0,1,7.383-4.261,23.425,23.425,0,0,1,8.594-1.616,8.9,8.9,0,0,1,6.686,2.772,23.987,23.987,0,0,1,4.969-2.709l.121.315a18.789,18.789,0,0,0-4.8,2.823,6.857,6.857,0,0,1,1.02,1.963,8.97,8.97,0,0,1,.253,2.435,9.287,9.287,0,0,1-.92,3.684A10.118,10.118,0,0,1-1093,1854.1a5.217,5.217,0,0,1-3.576,1.459,1.73,1.73,0,0,1-1.333-.588,2,2,0,0,1-.535-1.385,4.687,4.687,0,0,1,1.6-3.306,10.467,10.467,0,0,1,4.151-2.414l.141.315a10.816,10.816,0,0,0-4.1,2.33,4.26,4.26,0,0,0-1.435,3.075,1.648,1.648,0,0,0,.374,1.1,1.254,1.254,0,0,0,1.02.441,3.4,3.4,0,0,0,2-.829,11.012,11.012,0,0,0,2.141-2.309,12.765,12.765,0,0,0,1.676-3.107,9.032,9.032,0,0,0,.606-3.169,5.192,5.192,0,0,0-.949-2.887,31.5,31.5,0,0,0-4.181,3.737,29.8,29.8,0,0,0-3.132,3.893,44.7,44.7,0,0,0-2.575,4.45,76.672,76.672,0,0,1-4.272,7.736,24.681,24.681,0,0,1-3.8,4.629,28.107,28.107,0,0,1-5.222,3.915,25.572,25.572,0,0,1-5.817,2.467,21.589,21.589,0,0,1-5.919.85,7.928,7.928,0,0,1-4.453-1.028,3.245,3.245,0,0,1-1.5-2.813,2.357,2.357,0,0,1,.667-1.648,2.014,2.014,0,0,1,1.525-.724,1.174,1.174,0,0,1,1.333,1.323c0,.8-.445,1.2-1.333,1.2a.976.976,0,0,1-.727-.231,4.347,4.347,0,0,1-.545-.9v-.063c-.273.178-.414.641-.414,1.386a2.679,2.679,0,0,0,1.474,2.109,7.365,7.365,0,0,0,4.031.965,16.262,16.262,0,0,0,8.119-2.12,26.223,26.223,0,0,0,6.95-5.794,71.826,71.826,0,0,0,6.383-8.785q2.015-3.259,3.666-5.531a43.952,43.952,0,0,1,3.181-3.926,37.63,37.63,0,0,1,3.04-2.949c1-.873,2.071-1.732,3.192-2.572a7.454,7.454,0,0,0-6.181-2.708,22.793,22.793,0,0,0-8.837,1.71,26.114,26.114,0,0,0-7.141,4.3,22.537,22.537,0,0,0-4.757,5.51,10.243,10.243,0,0,0-1.726,5.028,3.638,3.638,0,0,0,.868,2.509,3.006,3.006,0,0,0,2.323.965,11.336,11.336,0,0,0,6.04-2.089,22.4,22.4,0,0,0,5.9-5.678,22.293,22.293,0,0,0,3.716-7.673" transform="translate(1154.211 -1701.597)"/><path class="j" d="M-1028.3,1911.249v.526a4.719,4.719,0,0,1-3.7,2.057l-.413-.063c-.142-.022-.294-.042-.475-.063q-4.728,5.116-8.191,5.112a2.138,2.138,0,0,1-1.2-.357,2.206,2.206,0,0,1-.828-.934,3.022,3.022,0,0,1-.283-1.354,6.077,6.077,0,0,1,1.746-4.031,13.912,13.912,0,0,1,4.212-3.212,9.964,9.964,0,0,1,4.343-1.249,1.747,1.747,0,0,1,2.01,1.942,6.736,6.736,0,0,1-1.455,3.653,1.684,1.684,0,0,0,.657.126,4.705,4.705,0,0,0,3.575-2.152m-4.707-3.139a6.079,6.079,0,0,0-3.8,1.954,28.21,28.21,0,0,0-3.848,4.293c-1.141,1.564-1.706,2.519-1.706,2.9a.955.955,0,0,0,.433.808,1.718,1.718,0,0,0,1.081.325,6.793,6.793,0,0,0,3.767-1.616,19.267,19.267,0,0,0,3.9-3.81,6.624,6.624,0,0,0,1.686-3.464,1.248,1.248,0,0,0-.434-1A1.529,1.529,0,0,0-1033,1908.109Z" transform="translate(1094.653 -1747.537)"/><path class="j" d="M-982.485,1907.921l-7.757,9.08a1.321,1.321,0,0,0-.354.8.527.527,0,0,0,.6.588,9.723,9.723,0,0,0,5.181-2.12,21.939,21.939,0,0,0,4.465-3.883,6.612,6.612,0,0,0,1.333-2.96c.232-1.164.545-1.742.919-1.742.273,0,.414.157.414.483q0,2.251-2.959,5.3a3.686,3.686,0,0,0,2.293-.189,5.8,5.8,0,0,0,2.171-2.036v.525a5.006,5.006,0,0,1-2.05,1.9,4.805,4.805,0,0,1-2.858.168q-5.15,4.989-9.09,4.986a1.065,1.065,0,0,1-1.212-1.2q0-2.252,4.433-7.117a79.728,79.728,0,0,1-7.271,6.267c-1.869,1.364-3.353,2.047-4.434,2.047-.636,0-.949-.4-.949-1.2q0-2.317,4.291-7.294A13.053,13.053,0,0,0-994,1908.72a23.91,23.91,0,0,0-5.615,3.789v-.495c1.08-.9,2.09-1.688,3.029-2.371a14.037,14.037,0,0,1,3.334-1.721l2.474,0-7.09,8.492a4.785,4.785,0,0,0-.919,1.449.528.528,0,0,0,.151.335.379.379,0,0,0,.294.189q1.122,0,3.878-2.078a59.831,59.831,0,0,0,4.959-4.167c.7-.7,1.475-1.438,2.343-2.215s1.6-1.448,2.192-2Z" transform="translate(1065.265 -1747.537)"/><path class="j" d="M-920.591,1911.249v.526a36.74,36.74,0,0,1-6.06,5.248,10.1,10.1,0,0,1-5.565,1.795q-2.485,0-2.484-2.949a6.034,6.034,0,0,1,1.788-4.325,12.394,12.394,0,0,1,4.2-2.865,10.945,10.945,0,0,1,3.919-1,2.01,2.01,0,0,1,1.353.419,1.361,1.361,0,0,1,.484,1.093,2.489,2.489,0,0,1-1.091,1.921,9.2,9.2,0,0,1-3.049,1.448,19.15,19.15,0,0,1-4.586.661q-2.257,2.644-2.253,4.031a.942.942,0,0,0,.485.808,2.177,2.177,0,0,0,1.232.325q4.757,0,11.625-7.138m-10.5,1.386a11.605,11.605,0,0,0,4.141-.651,7.207,7.207,0,0,0,2.566-1.533,2.494,2.494,0,0,0,.869-1.448c0-.6-.333-.893-1.01-.893a5.78,5.78,0,0,0-3.1,1.218A16.639,16.639,0,0,0-931.1,1912.635Z" transform="translate(1021.681 -1747.537)"/><path class="j" d="M-893.942,1906.866c.888-.734,1.778-1.478,2.656-2.244s1.747-1.47,2.615-2.152a2.1,2.1,0,0,1,.233-1.7,1.378,1.378,0,0,1,1.161-.756,1.058,1.058,0,0,1,.677.231.688.688,0,0,1,.292.567.873.873,0,0,1-.252.651.843.843,0,0,1-.606.242c-.232,0-.555-.21-.97-.62a1.156,1.156,0,0,0-.181.682.875.875,0,0,0,.283.693.959.959,0,0,0,.7.325,3.983,3.983,0,0,0,.8-.127,5.391,5.391,0,0,1,.706-.126c.162,0,.293.157.4.462a3.3,3.3,0,0,1,.162,1.113,2.682,2.682,0,0,1-.728,1.458c-.485.6-1.313,1.6-2.495,2.97s-2.01,2.34-2.465,2.918a2.545,2.545,0,0,0-.676,1.323c0,.3.2.462.6.462.546,0,1.728-.671,3.535-2.015s3.9-3.055,6.282-5.122v.525q-7.953,7.035-10.059,7.043c-.535,0-.8-.336-.8-1.018a7,7,0,0,1,.545-2.74,11.541,11.541,0,0,1,1.879-2.855l3.465-3.969a3.5,3.5,0,0,1-1.4.212c-.526-.022-.848-.168-.959-.462q-3.94,3.385-5.393,4.524Z" transform="translate(994.315 -1742.388)"/><path class="j" d="M-818.855,1911.249v.526a4.719,4.719,0,0,1-3.7,2.057l-.413-.063c-.142-.022-.294-.042-.475-.063q-4.728,5.116-8.191,5.112a2.136,2.136,0,0,1-1.2-.357,2.2,2.2,0,0,1-.828-.934,3.017,3.017,0,0,1-.283-1.354,6.076,6.076,0,0,1,1.746-4.031,13.907,13.907,0,0,1,4.212-3.212,9.967,9.967,0,0,1,4.343-1.249,1.747,1.747,0,0,1,2.01,1.942,6.738,6.738,0,0,1-1.455,3.653,1.684,1.684,0,0,0,.657.126,4.7,4.7,0,0,0,3.575-2.152m-4.707-3.139a6.079,6.079,0,0,0-3.8,1.954,28.242,28.242,0,0,0-3.848,4.293c-1.141,1.564-1.706,2.519-1.706,2.9a.955.955,0,0,0,.434.808,1.717,1.717,0,0,0,1.081.325,6.793,6.793,0,0,0,3.767-1.616,19.281,19.281,0,0,0,3.9-3.81,6.625,6.625,0,0,0,1.686-3.464,1.247,1.247,0,0,0-.434-1A1.528,1.528,0,0,0-823.562,1908.109Z" transform="translate(954.032 -1747.537)"/><path class="j" d="M-814.169,1874.875l-.566-1.017c-.051.1-.4.662-1.051,1.69s-1.171,1.878-1.6,2.572-.889,1.448-1.4,2.288Zm11.331-11.9-2.868,3.59a66.544,66.544,0,0,0,6.342-3.767,54.8,54.8,0,0,0,5.435-4.136,26.543,26.543,0,0,0,3.808-3.978,5.682,5.682,0,0,0,1.394-3.127,1.153,1.153,0,0,0-.323-.861,1.279,1.279,0,0,0-.89-.3q-1.953,0-5.07,3.317T-802.838,1862.973Zm-6.413,5.867c-.849.41-2.051,1.062-3.586,1.943a1.888,1.888,0,0,1-.2.608,5.911,5.911,0,0,1-.374.62c-.132.188-.283.409-.454.682a1.653,1.653,0,0,0-.475.861,1.868,1.868,0,0,0,.525.892c.2-.3.96-1.228,2.283-2.8S-809.453,1869.125-809.251,1868.84Zm-7.464,4.649v-.556c.04-.041.353-.261.929-.66s.9-.62.939-.661a3.57,3.57,0,0,1,.515-1.763c.323-.547.657-.819.99-.819.535,0,.727.4.566,1.2,2.626-1.376,4.07-2.131,4.353-2.278l7.09-8.576q7.757-9.447,11.392-9.445a1.66,1.66,0,0,1,1.152.43,1.475,1.475,0,0,1,.475,1.134c0,1.259-.788,2.782-2.354,4.587a39.1,39.1,0,0,1-6.534,5.752,70.165,70.165,0,0,1-9.21,5.626l-6.363,7.935a4.579,4.579,0,0,0,2.131.62,6.23,6.23,0,0,0,3.4-.82,22.713,22.713,0,0,0,3.252-2.718V1873a13.979,13.979,0,0,1-3.252,2.677,7.193,7.193,0,0,1-3.342.7,5.322,5.322,0,0,1-2.485-.608l-14.271,17.737H-829.7l5.474-6.549q1.424-1.718,3.342-4.4t3.334-4.838c.929-1.45,1.817-2.918,2.646-4.419l-.061-1.018c-.293.188-.585.378-.869.578S-816.422,1873.26-816.714,1873.49Z" transform="translate(951.185 -1708.76)"/><path class="j" d="M-747.213,1932.346h-2.544l14.5-17.067q-3.68,3.543-5.888,3.538c-1.2,0-1.808-.966-1.808-2.9a6.108,6.108,0,0,1,1.616-3.936,12.1,12.1,0,0,1,3.99-3.118,10.168,10.168,0,0,1,4.515-1.186c1.04,0,1.565.44,1.565,1.323a5.105,5.105,0,0,1-.5,1.816l2.99-3.138h1.151l-13.222,16.794c.687-.641,1.818-1.679,3.4-3.118s2.948-2.707,4.121-3.768,2.625-2.383,4.353-3.947,2.616-2.351,2.676-2.393v.525q-7.757,7.035-14.433,13.34-.956.9-2.212,2.33-1.257,1.417-4.273,4.9m14.494-24.237a6.811,6.811,0,0,0-3.676,1.775,22.24,22.24,0,0,0-4.04,4,6.6,6.6,0,0,0-1.748,3.611.826.826,0,0,0,.284.65,1.027,1.027,0,0,0,.7.242q1.152,0,3.455-1.752a26.451,26.451,0,0,0,4.191-3.968c1.252-1.48,1.878-2.635,1.878-3.474a1.137,1.137,0,0,0-.292-.746A.977.977,0,0,0-732.719,1908.109Z" transform="translate(897.508 -1747.537)"/><path class="j" d="M-682.393,1913v-.494a28.855,28.855,0,0,1,5.454-4.092h2.484l-6.605,7.82a9.13,9.13,0,0,0-1.657,2.279c0,.2.172.3.505.3q1.622,0,5.333-3,3.7-2.993,8.191-7.4h2.343l-6.9,8.188c-.081.105-.242.295-.485.589a4.568,4.568,0,0,0-.565.777,1.044,1.044,0,0,0-.161.609c0,.2.161.3.474.3.727,0,2.1-.682,4.111-2.047a35.471,35.471,0,0,0,5.888-5.1v.525a37.919,37.919,0,0,1-5.838,5.048c-1.95,1.333-3.373,2.005-4.282,2.005-.687,0-1.03-.357-1.03-1.081a5.46,5.46,0,0,1,.9-2.551,37.943,37.943,0,0,1,2.8-3.947l.566-.673-1.1,1.02q-3.575,3.32-6.171,5.279c-1.727,1.3-3.08,1.953-4.07,1.953q-1.091,0-1.091-1.322a4.53,4.53,0,0,1,.484-1.9,14.289,14.289,0,0,1,1.3-2.131c.545-.745,1.12-1.47,1.738-2.173s1.232-1.437,1.858-2.173l-1.505.924a37.315,37.315,0,0,0-2.969,2.466" transform="translate(852.89 -1748.027)"/><path class="j" d="M-613.445,1911.9l-1.505,1.322c-2.363,2.048-4.121,3.5-5.251,4.336a5.3,5.3,0,0,1-3,1.26c-.575,0-.858-.336-.858-1.018a8.58,8.58,0,0,1,.8-3.012q-4.227,4.03-6.242,4.03a1.752,1.752,0,0,1-1.443-.724,3.392,3.392,0,0,1-.567-2.11,6.041,6.041,0,0,1,.89-3.086,9.4,9.4,0,0,1,2.383-2.7,12.085,12.085,0,0,1,3.333-1.847,10.406,10.406,0,0,1,3.6-.671,1.978,1.978,0,0,1,1.263.325,1.359,1.359,0,0,1,.424,1.06c-.02.1-.03.2-.039.294s-.031.221-.061.378-.06.3-.071.4l1.858-2.268,2.484-.188-.767.986c-.626.776-1.141,1.417-1.535,1.921s-.737.913-1.01,1.249q-4.62,5.2-4.615,6.088c0,.3.142.462.414.462a3.775,3.775,0,0,0,1.686-.692,24.583,24.583,0,0,0,2.526-1.827c.94-.766,2.01-1.659,3.212-2.7s1.909-1.637,2.1-1.794Zm-7.807-3.79a6.5,6.5,0,0,0-3.95,1.818,20.812,20.812,0,0,0-3.777,4.125,7.339,7.339,0,0,0-1.616,3.254,1.1,1.1,0,0,0,.293.777,1.013,1.013,0,0,0,.737.3c.808,0,1.98-.588,3.5-1.752a25.934,25.934,0,0,0,4.11-3.968c1.222-1.48,1.828-2.635,1.828-3.474C-620.131,1908.467-620.5,1908.111-621.251,1908.109Z" transform="translate(818.119 -1747.537)"/><path class="j" d="M-560.815,1860.591l1.475-1.659h2.282l-18.644,21.685q-3.349,3.809-3.343,4.451a.526.526,0,0,0,.6.588,4.424,4.424,0,0,0,2.364-.9,32.837,32.837,0,0,0,3.6-3.034c1.505-1.418,2.616-2.435,3.333-3.075v.524q-4.03,3.841-5.888,5.385a5.648,5.648,0,0,1-3.4,1.532,1.162,1.162,0,0,1-.909-.42,1.415,1.415,0,0,1-.363-.965,6.705,6.705,0,0,1,1.474-3.664,56.509,56.509,0,0,1,4-4.892c.121-.158.475-.6,1.061-1.3s1.161-1.417,1.717-2.11c-1.364,1.071-3.98,3.391-7.868,6.991v-.494l8.4-7.568q1.53-1.352,10.12-11.073" transform="translate(783.344 -1714.806)"/><path class="j" d="M-551.339,1899.7l-.06-.494a34.1,34.1,0,0,1,5.261-4.03h2.667l-6.979,8.124a4.429,4.429,0,0,0-.949,1.607c-.142.493-.02.735.353.735.99,0,2.454-.756,4.413-2.277a55.925,55.925,0,0,0,5.414-4.8v.524a61.091,61.091,0,0,1-5.534,4.924c-1.778,1.374-3.233,2.057-4.353,2.057-.647,0-.98-.357-.98-1.081q0-3.2,4.8-8.177c.181-.191.343-.367.484-.546s.293-.325.434-.473a29.852,29.852,0,0,0-4.969,3.9m10.231-11c.435,0,.656.273.656.83a1.211,1.211,0,0,1-.263.8.884.884,0,0,1-.686.305c-.535,0-.8-.241-.8-.735a1.245,1.245,0,0,1,.323-.808A.976.976,0,0,1-541.108,1888.7Z" transform="translate(764.79 -1734.795)"/><path class="j" d="M-511.169,1882.767l4.918-5.783h2.545l-4.918,5.783h3.757l-.323.525h-3.818l-7.191,8.49c-.788.9-1.656,1.985-2.616,3.255a12.561,12.561,0,0,0-1.434,2.089.574.574,0,0,0,.647.65c1.626,0,5.09-2.382,10.423-7.137v.525l-1.576,1.447q-6.121,5.59-8.9,5.6a1.452,1.452,0,0,1-1.071-.4,1.313,1.313,0,0,1-.383-.923,9.956,9.956,0,0,1,1.677-4.094,48.589,48.589,0,0,1,6.544-7.935,89.267,89.267,0,0,0-8.4,7.043v-.495c1.211-1.185,2.7-2.527,4.474-4.039s3.515-2.866,5.2-4.072h-2.151l.414-.525Z" transform="translate(744.112 -1726.926)"/><path class="j" d="M-508.543,1912.508v-.494c1.575-1.417,2.877-2.486,3.888-3.22a4.739,4.739,0,0,1,2.647-1.113c.616,0,.919.419.919,1.26q0,2.675-3.515,5.909c-1.7,1.553-2.546,2.582-2.546,3.075,0,.3.182.462.535.462.728,0,1.99-.63,3.8-1.889s3.676-2.729,5.615-4.409,3.454-3.054,4.515-4.167l2.252,0-9.5,11.264a30.814,30.814,0,0,0,5.7-3.033,61.758,61.758,0,0,0,5.989-4.9v.525a46.441,46.441,0,0,1-5.908,4.944,32.275,32.275,0,0,1-6.454,3.233l-.535.619q-6.183,7.194-10,10.916t-6.3,3.716a1.6,1.6,0,0,1-1.838-1.784,5.559,5.559,0,0,1,1.676-3.244,26.4,26.4,0,0,1,5.191-4.335,71.013,71.013,0,0,1,8.969-5q2.893-3.875,7.514-9.131c-2.091,1.678-3.475,2.791-4.141,3.316s-1.474,1.134-2.394,1.806a15.562,15.562,0,0,1-2.474,1.491,4.756,4.756,0,0,1-1.909.493,1.135,1.135,0,0,1-.828-.336,1.312,1.312,0,0,1-.323-.923,5.076,5.076,0,0,1,.383-1.942,6.511,6.511,0,0,1,1.233-1.858,16.849,16.849,0,0,1,2.252-2.047q2.544-1.969,2.546-3.044c0-.368-.2-.557-.6-.557a4.7,4.7,0,0,0-2.6,1.26c-1.06.838-2.312,1.889-3.756,3.138m4.524,8.953a72.688,72.688,0,0,0-10.524,6.519c-2.868,2.193-4.3,4.02-4.3,5.5a1.17,1.17,0,0,0,.375.9,1.227,1.227,0,0,0,.9.357,4.807,4.807,0,0,0,2.343-.756,14.762,14.762,0,0,0,2.91-2.351,52.459,52.459,0,0,0,3.778-4.24c.767-.987,1.605-2.047,2.5-3.18S-504.473,1922.155-504.019,1921.462Z" transform="translate(742.77 -1747.537)"/></g></g></g></g></svg>