<svg xmlns="http://www.w3.org/2000/svg" width="202.241" height="182.458" viewBox="0 0 202.241 182.458"><defs><style>.a{fill:#194895;}</style></defs><g transform="translate(0 -21.618)"><path class="a" d="M186.283,21.618H15.959A15.977,15.977,0,0,0,0,37.577V150.131a15.977,15.977,0,0,0,15.959,15.959H73.4v28.836H51.793a4.576,4.576,0,0,0,0,9.151h98.655a4.576,4.576,0,1,0,0-9.151H128.84V166.089h57.443a15.977,15.977,0,0,0,15.959-15.959V37.577A15.976,15.976,0,0,0,186.283,21.618ZM15.959,30.769H186.283a6.815,6.815,0,0,1,6.808,6.808v99.579H9.151V37.577A6.815,6.815,0,0,1,15.959,30.769Zm103.73,164.156H82.553V166.089h37.136Zm66.594-37.987H15.959a6.815,6.815,0,0,1-6.808-6.808v-3.823H193.09v3.823A6.815,6.815,0,0,1,186.283,156.938Z" transform="translate(0 0)"/><path class="a" d="M148.654,153.092H209.9a4.576,4.576,0,0,0,4.576-4.576V106.134a4.576,4.576,0,0,0-4.576-4.576H148.654a4.576,4.576,0,0,0-4.576,4.576v42.383A4.576,4.576,0,0,0,148.654,153.092Zm4.576-42.383h52.09v33.232h-52.09Z" transform="translate(-78.154 -43.363)"/><path class="a" d="M312.129,110.709h3.2a4.576,4.576,0,1,0,0-9.151h-3.2a4.576,4.576,0,0,0,0,9.151Z" transform="translate(-166.829 -43.363)"/><path class="a" d="M282.5,77.28a4.576,4.576,0,0,0,4.576-4.576V69.5a4.576,4.576,0,1,0-9.151,0v3.2A4.575,4.575,0,0,0,282.5,77.28Z" transform="translate(-150.756 -23.491)"/><path class="a" d="M312.129,203.338h3.2a4.576,4.576,0,1,0,0-9.151h-3.2a4.576,4.576,0,0,0,0,9.151Z" transform="translate(-166.829 -93.608)"/><path class="a" d="M282.5,223.818a4.576,4.576,0,0,0-4.576,4.576v3.2a4.576,4.576,0,1,0,9.151,0v-3.2A4.576,4.576,0,0,0,282.5,223.818Z" transform="translate(-150.756 -109.681)"/><path class="a" d="M112.021,110.709h3.2a4.576,4.576,0,0,0,0-9.151h-3.2a4.576,4.576,0,1,0,0,9.151Z" transform="translate(-58.282 -43.363)"/><path class="a" d="M148.654,77.28a4.576,4.576,0,0,0,4.576-4.576V69.5a4.576,4.576,0,0,0-9.151,0v3.2A4.576,4.576,0,0,0,148.654,77.28Z" transform="translate(-78.154 -23.491)"/><path class="a" d="M112.021,203.338h3.2a4.576,4.576,0,1,0,0-9.151h-3.2a4.576,4.576,0,1,0,0,9.151Z" transform="translate(-58.282 -93.608)"/><path class="a" d="M148.654,236.173a4.576,4.576,0,0,0,4.576-4.576v-3.2a4.576,4.576,0,1,0-9.151,0v3.2A4.576,4.576,0,0,0,148.654,236.173Z" transform="translate(-78.154 -109.681)"/></g></svg>