<svg xmlns="http://www.w3.org/2000/svg" width="192.92" height="192.92" viewBox="0 0 192.92 192.92"><defs><style>.a{fill:none;}.b{fill:#6b7786;}</style></defs><path class="a" d="M0,0H192.92V192.92H0Z"/><path class="b" d="M18.077,18.077H74.345V2H18.077A16.124,16.124,0,0,0,2,18.077V74.345H18.077Zm48.23,72.345L34.153,130.613h96.46L106.5,98.46,90.18,120.244Zm56.268-36.172a12.057,12.057,0,1,0-12.057,12.057A12.041,12.041,0,0,0,122.575,54.249ZM146.69,2H90.422V18.077H146.69V74.345h16.077V18.077A16.124,16.124,0,0,0,146.69,2Zm0,144.69H90.422v16.077H146.69a16.124,16.124,0,0,0,16.077-16.077V90.422H146.69ZM18.077,90.422H2V146.69a16.124,16.124,0,0,0,16.077,16.077H74.345V146.69H18.077Z" transform="translate(14.077 14.077)"/></svg>