<svg xmlns="http://www.w3.org/2000/svg" width="122.957" height="122.957" viewBox="0 0 122.957 122.957"><defs><style>.a{fill:none;}.b{fill:#194895;}</style></defs><path class="a" d="M0,0H122.957V122.957H0Z"/><path class="b" d="M89.095,28.616H83.971V3H22.493V28.616H17.37A15.349,15.349,0,0,0,2,43.986V74.725H22.493V95.218H83.971V74.725h20.493V43.986A15.349,15.349,0,0,0,89.095,28.616ZM32.739,13.246H73.725v15.37H32.739ZM73.725,74.725V84.971H32.739V64.479H73.725ZM83.971,64.479V54.232H22.493V64.479H12.246V43.986a5.138,5.138,0,0,1,5.123-5.123H89.095a5.138,5.138,0,0,1,5.123,5.123V64.479Z" transform="translate(8.246 12.37)"/><circle class="b" cx="5.123" cy="5.123" r="5.123" transform="translate(87.095 53.794)"/></svg>