<svg xmlns="http://www.w3.org/2000/svg" width="161.847" height="161.847" viewBox="0 0 161.847 161.847"><defs><style>.a{fill:none;}.b{fill:#6b7786;}</style></defs><path class="a" d="M0,0H161.847V161.847H0Z"/><path class="b" d="M49.205,64.007C33.425,64.007,2,71.9,2,87.609v11.8H96.41v-11.8C96.41,71.9,64.985,64.007,49.205,64.007ZM17.78,85.923c5.665-3.911,19.354-8.43,31.425-8.43s25.761,4.518,31.425,8.43ZM49.205,52.205A23.6,23.6,0,1,0,25.6,28.6,23.629,23.629,0,0,0,49.205,52.205Zm0-33.718A10.115,10.115,0,1,1,39.09,28.6,10.1,10.1,0,0,1,49.205,18.487ZM96.68,64.411c7.823,5.665,13.217,13.217,13.217,23.2v11.8h26.974v-11.8C136.872,73.987,113.27,66.232,96.68,64.411ZM89.667,52.205A23.6,23.6,0,0,0,89.667,5,23.235,23.235,0,0,0,79.551,7.36a36.829,36.829,0,0,1,0,42.485A23.235,23.235,0,0,0,89.667,52.205Z" transform="translate(11.487 28.718)"/></svg>