<svg xmlns="http://www.w3.org/2000/svg" width="212.451" height="171.02" viewBox="0 0 212.451 171.02"><defs><style>.a{fill:#194895;}</style></defs><g transform="translate(0 -42.153)"><path class="a" d="M66.157,88.653A19.657,19.657,0,1,0,85.815,108.31,19.68,19.68,0,0,0,66.157,88.653Zm0,29.486a9.829,9.829,0,1,1,9.829-9.829A9.84,9.84,0,0,1,66.157,118.139Z" transform="translate(-23.648 -23.648)"/><path class="a" d="M66.157,241.653A19.657,19.657,0,1,0,85.815,261.31,19.68,19.68,0,0,0,66.157,241.653Zm0,29.486a9.829,9.829,0,1,1,9.829-9.829A9.84,9.84,0,0,1,66.157,271.139Z" transform="translate(-23.648 -101.458)"/><path class="a" d="M192.954,144.533c-7.87-10.693-17.377-18.45-27.794-22.879a42.5,42.5,0,0,0-20.924-79.5H42.509a42.5,42.5,0,0,0-19.822,80.1,42.5,42.5,0,0,0,19.822,80.1H90.577a4.914,4.914,0,0,0,0-9.829H69.663a42.5,42.5,0,0,0,14.514-41.117c10.377,14.644,16.791,34.722,16.791,56.843a4.914,4.914,0,0,0,4.914,4.914H207.537a4.914,4.914,0,0,0,4.914-4.914C212.451,184.246,205.527,161.615,192.954,144.533ZM144.237,51.982a32.681,32.681,0,1,1,0,65.361H69.663a42.454,42.454,0,0,0,0-65.361ZM9.829,84.662a32.681,32.681,0,1,1,32.681,32.681A32.718,32.718,0,0,1,9.829,84.662Zm32.681,107.87A32.681,32.681,0,1,1,75.19,159.852,32.718,32.718,0,0,1,42.509,192.533Zm68.19,10.812c-.878-22.174-7.688-42.9-19.4-58.811A73.337,73.337,0,0,0,73.59,127.172h70.647c31,0,56.443,33.742,58.279,76.173Z" transform="translate(0 0)"/></g></svg>