<svg xmlns="http://www.w3.org/2000/svg" width="118.263" height="118.263" viewBox="0 0 118.263 118.263"><defs><style>.a{fill:none;}.b{fill:#6b7786;}</style></defs><path class="a" d="M0,0H118.263V118.263H0Z"/><path class="b" d="M97.645,49.207,53.3,4.858A9.794,9.794,0,0,0,46.349,2H11.855A9.884,9.884,0,0,0,2,11.855V46.349a9.834,9.834,0,0,0,2.907,7L49.256,97.695a9.794,9.794,0,0,0,6.948,2.858,9.635,9.635,0,0,0,6.948-2.907L97.645,63.152a9.635,9.635,0,0,0,2.907-6.948A9.953,9.953,0,0,0,97.645,49.207ZM56.2,90.747l-44.349-44.4V11.855H46.349v-.049L90.7,56.155Z" transform="translate(7.855 7.855)"/><circle class="b" cx="7.5" cy="7.5" r="7.5" transform="translate(24.49 24.773)"/></svg>