<svg xmlns="http://www.w3.org/2000/svg" width="197.933" height="171.02" viewBox="0 0 197.933 171.02"><defs><style>.a{fill:#194895;}</style></defs><g transform="translate(0 -30.049)"><path class="a" d="M390.2,64.549a4.7,4.7,0,1,0,4.7,4.7A4.707,4.707,0,0,0,390.2,64.549Z" transform="translate(-212.868 -19.05)"/><path class="a" d="M390.2,100.049a4.7,4.7,0,1,0,4.7,4.7A4.707,4.707,0,0,0,390.2,100.049Z" transform="translate(-212.868 -38.653)"/><path class="a" d="M175.543,30.049H22.391A22.416,22.416,0,0,0,0,52.44V81.771a4.478,4.478,0,0,0,4.478,4.478H16.121V192.113H7.165a4.478,4.478,0,0,0,0,8.956H34.034a4.478,4.478,0,1,0,0-8.956H25.078V86.249H47.244v75.837a4.478,4.478,0,0,0,4.478,4.478H98.967a51.781,51.781,0,0,0,51.722-51.722V86.249h22.167V192.113H163.9a4.478,4.478,0,1,0,0,8.956h26.869a4.478,4.478,0,1,0,0-8.956h-8.956V86.249h11.643a4.478,4.478,0,0,0,4.478-4.478V52.44A22.416,22.416,0,0,0,175.543,30.049ZM97.054,157.608H56.2V62.627h85.532v50.3A42.457,42.457,0,0,1,112.8,124.2a4.478,4.478,0,0,0-4.478,4.478A42.455,42.455,0,0,1,97.054,157.608Zm12.225-1.257a51.223,51.223,0,0,0,7.827-23.369,51.232,51.232,0,0,0,23.369-7.827A42.922,42.922,0,0,1,109.279,156.352Zm79.7-79.059H150.689V62.627h8.956a4.478,4.478,0,0,0,0-8.956H38.288a4.478,4.478,0,1,0,0,8.956h8.956V77.293H8.956V52.44A13.45,13.45,0,0,1,22.391,39.005H175.543A13.45,13.45,0,0,1,188.977,52.44Z" transform="translate(0 0)"/></g></svg>