<svg xmlns="http://www.w3.org/2000/svg" width="125.804" height="125.804" viewBox="0 0 125.804 125.804"><defs><style>.a{fill:none;}.b{fill:#6b7786;}</style></defs><path class="a" d="M0,0H125.8V125.8H0Z"/><path class="b" d="M64.9,22.967V12.484H43.935V22.967ZM12.484,33.451v57.66H96.353V33.451ZM96.353,22.967a10.447,10.447,0,0,1,10.484,10.484v57.66a10.447,10.447,0,0,1-10.484,10.484H12.484A10.447,10.447,0,0,1,2,91.111l.052-57.66A10.4,10.4,0,0,1,12.484,22.967H33.451V12.484A10.447,10.447,0,0,1,43.935,2H64.9A10.447,10.447,0,0,1,75.385,12.484V22.967Z" transform="translate(8.484 8.484)"/></svg>